<?xml version="1.0" encoding="utf-8"?>
<!-- Generator: Adobe Illustrator 25.2.1, SVG Export Plug-In . SVG Version: 6.00 Build 0)  -->
<svg version="1.1" id="Layer_1" xmlns="http://www.w3.org/2000/svg" xmlns:xlink="http://www.w3.org/1999/xlink" x="0px" y="0px"
	 viewBox="0 0 767 767" style="enable-background:new 0 0 767 767;" xml:space="preserve">
<style type="text/css">
	.st0{fill:#FF0000;}
	.st1{opacity:0.77;fill:#FFFFFF;}
	.st2{fill:none;}
</style>
<g>
	<rect y="0" class="st0" width="767" height="767"/>
</g>
<polygon class="st1" points="457.4,236.3 383.5,351.6 309.6,236.3 333.6,236.3 333.6,0 433.4,0 433.4,236.3 "/>
<path class="st1" d="M433.4,518.4c0,0,0,248.6,0,248.6h-99.8c0,0,0-248.6,0-248.6L201.8,314.9h0C159.9,249.4,63,98.3,0.1,0H287
	v189.6h-57.6c39.8,62,115,179.4,154.1,240.5l73.9-115.3h0l80.2-125.2H480V0H767C663.3,161.9,529.6,370.6,433.4,518.4z"/>
<polyline class="st2" points="0,0 0.1,0 287,0 333.6,0 433.4,0 480,0 767,0 767,0 "/>
</svg>
